<?xml version="1.0" encoding="UTF-8" standalone="no"?>
<!DOCTYPE svg PUBLIC "-//W3C//DTD SVG 1.1//EN" "http://www.w3.org/Graphics/SVG/1.1/DTD/svg11.dtd">
<svg width="100%" height="100%" viewBox="0 0 195 93" version="1.1" xmlns="http://www.w3.org/2000/svg" xmlns:xlink="http://www.w3.org/1999/xlink" xml:space="preserve" xmlns:serif="http://www.serif.com/" style="fill-rule:evenodd;clip-rule:evenodd;stroke-linejoin:round;stroke-miterlimit:1.41421;">
    <g id="Artboard1" transform="matrix(1,0,0,1,-862.985,-780.519)">
        <rect x="862.985" y="780.519" width="194.031" height="92.506" style="fill:none;"/>
        <clipPath id="_clip1">
            <rect x="862.985" y="780.519" width="194.031" height="92.506"/>
        </clipPath>
        <g clip-path="url(#_clip1)">
            <g transform="matrix(0.0794071,0,0,0.0794071,752.515,436.826)">
                <g transform="matrix(10.8841,0,0,10.8841,299.187,2770.91)">
                    <path d="M104.219,175.932C104.219,175.932 120.219,212.932 162.469,212.932C204.719,212.932 231.719,182.932 271.219,182.932C310.719,182.932 320.719,212.932 320.719,212.932C320.719,212.932 317.219,202.682 291.969,202.682C266.719,202.682 223.388,239.716 182.469,249.182C123.597,262.801 97.519,181.34 104.219,175.932Z" style="fill:rgb(0,129,178);"/>
                </g>
                <g transform="matrix(10.8841,0,0,10.8841,299.187,2781.79)">
                    <path d="M325.969,206.682C325.969,206.682 306.825,174.905 275.719,174.182C221.969,172.932 213.469,204.432 158.219,204.432C102.969,204.432 101.469,142.682 101.469,142.682C101.469,142.682 115.219,179.432 162.219,179.432C213.469,179.432 224.719,148.432 275.719,148.432C326.719,148.432 325.969,206.682 325.969,206.682Z" style="fill:rgb(244,123,32);"/>
                </g>
            </g>
        </g>
    </g>
</svg>
