<?xml version="1.0" encoding="UTF-8" standalone="no"?>
<!DOCTYPE svg PUBLIC "-//W3C//DTD SVG 1.1//EN" "http://www.w3.org/Graphics/SVG/1.1/DTD/svg11.dtd">
<svg width="100%" height="100%" viewBox="0 0 87 117" version="1.1" xmlns="http://www.w3.org/2000/svg" xmlns:xlink="http://www.w3.org/1999/xlink" xml:space="preserve" xmlns:serif="http://www.serif.com/" style="fill-rule:evenodd;clip-rule:evenodd;stroke-linejoin:round;stroke-miterlimit:1.41421;">
    <g id="Artboard1" transform="matrix(0.747006,0,0,1,-1151.52,-768.79)">
        <rect x="1541.52" y="768.79" width="116.129" height="116.129" style="fill:none;"/>
        <g transform="matrix(0.715609,0.534564,-0.715609,0.534564,3109.08,-1883.65)">
            <path d="M1447.23,3526.4C1455.8,3519.14 1470.45,3521.62 1475.6,3531.79C1476.5,3533.57 1477.11,3535.49 1477.38,3537.47C1477.5,3538.31 1477.54,3539.17 1477.56,3540.02L1477.56,3594.24L1531.79,3594.24C1531.79,3594.24 1537.11,3594.54 1540.78,3596.62C1548.46,3600.97 1552.02,3611.39 1548.58,3619.54C1545.82,3626.11 1538.9,3630.53 1531.79,3630.69L1472.09,3630.69C1456.03,3630.59 1441.22,3616.64 1441.12,3599.72L1441.12,3540.02C1441.24,3534.89 1443.37,3530 1447.23,3526.4Z" style="fill:rgb(244,123,32);fill-rule:nonzero;"/>
        </g>
    </g>
</svg>
