<?xml version="1.0" encoding="UTF-8" standalone="no"?>
<!DOCTYPE svg PUBLIC "-//W3C//DTD SVG 1.1//EN" "http://www.w3.org/Graphics/SVG/1.1/DTD/svg11.dtd">
<svg width="100%" height="100%" viewBox="0 0 93 43" version="1.1" xmlns="http://www.w3.org/2000/svg" xmlns:xlink="http://www.w3.org/1999/xlink" xml:space="preserve" xmlns:serif="http://www.serif.com/" style="fill-rule:evenodd;clip-rule:evenodd;stroke-linejoin:round;stroke-miterlimit:1.41421;">
    <g id="Artboard1" transform="matrix(1,0,0,1,-1324.77,-278.148)">
        <rect x="1324.77" y="278.148" width="92.319" height="42.17" style="fill:none;"/>
        <clipPath id="_clip1">
            <rect x="1324.77" y="278.148" width="92.319" height="42.17"/>
        </clipPath>
        <g clip-path="url(#_clip1)">
            <g transform="matrix(0.557225,0,0,0.557225,160.124,-1537.15)">
                <g transform="matrix(0.631699,0,0,0.631699,1315.25,1694.33)">
                    <path d="M1402.9,2475.53C1404.35,2475.66 1405.72,2476.05 1406.8,2476.95C1407.76,2477.76 1408.15,2478.56 1408.15,2478.56L1408.6,2479.51L1408.88,2480.53C1409.07,2482.66 1409,2485.86 1409.58,2488.97C1412.29,2503.47 1424.47,2515.82 1439.21,2518.66C1455.39,2521.78 1473.14,2513.01 1480.66,2498.03C1483.22,2492.94 1484.6,2487.29 1484.78,2481.59C1484.78,2481.59 1485.74,2479.39 1485.74,2479.39C1485.74,2479.39 1487.92,2478.48 1487.92,2478.48L1490.08,2479.4C1490.46,2480.28 1491.03,2481.59 1491.03,2481.61C1491.65,2509.13 1467.13,2530.55 1441.17,2528.78C1425.61,2527.72 1410.91,2518.48 1403,2504.59C1392.73,2524.33 1367.66,2536.37 1343.89,2527.98C1332.29,2523.89 1322.44,2515.2 1316.8,2504.3C1316.8,2504.3 1312.54,2511.35 1307.8,2515.81C1293.3,2529.49 1269.49,2532.67 1251.91,2522.51C1237.69,2514.29 1228.42,2498.27 1228.78,2481.61C1228.78,2481.61 1229.72,2479.4 1229.72,2479.4C1229.72,2479.4 1231.9,2478.47 1231.9,2478.47L1234.07,2479.39C1234.45,2480.26 1235.03,2481.57 1235.03,2481.59C1235.54,2498.84 1248.54,2515.03 1265.58,2518.64C1282.38,2522.2 1301.09,2513.23 1308.12,2496.57C1310.12,2491.85 1311.05,2486.7 1310.99,2481.58L1311.09,2480.56C1311.72,2478.21 1312.38,2477.8 1312.38,2477.8C1315.19,2475 1314.31,2475.05 1318.43,2475.78C1320.1,2476.07 1321.48,2477.15 1322.52,2478.63C1322.52,2478.63 1323.27,2480.82 1323.36,2482.78C1324.38,2501.62 1341.19,2518.82 1362.36,2517.39C1380.29,2516.19 1396.02,2500.57 1396.33,2481.58L1396.42,2480.53C1396.6,2479.89 1396.61,2479.32 1397.76,2477.69C1397.76,2477.69 1398.5,2476.94 1398.5,2476.94L1399.37,2476.34C1400.02,2476.04 1400.49,2475.51 1402.9,2475.53Z" style="fill:white;fill-rule:nonzero;"/>
                </g>
                <g transform="matrix(0.631699,0,0,0.631699,1315.25,1735.05)">
                    <path d="M1402.9,2475.53C1404.35,2475.66 1405.72,2476.05 1406.8,2476.95C1407.76,2477.76 1408.15,2478.56 1408.15,2478.56L1408.6,2479.51L1408.88,2480.53C1409.07,2482.66 1409,2485.86 1409.58,2488.97C1412.29,2503.47 1424.47,2515.82 1439.21,2518.66C1455.39,2521.78 1473.14,2513.01 1480.66,2498.03C1483.22,2492.94 1484.6,2487.29 1484.78,2481.59C1484.78,2481.59 1485.74,2479.39 1485.74,2479.39C1485.74,2479.39 1487.92,2478.48 1487.92,2478.48L1490.08,2479.4C1490.46,2480.28 1491.03,2481.59 1491.03,2481.61C1491.65,2509.13 1467.13,2530.55 1441.17,2528.78C1425.61,2527.72 1410.91,2518.48 1403,2504.59C1392.73,2524.33 1367.66,2536.37 1343.89,2527.98C1332.29,2523.89 1322.44,2515.2 1316.8,2504.3C1316.8,2504.3 1312.54,2511.35 1307.8,2515.81C1293.3,2529.49 1269.49,2532.67 1251.91,2522.51C1237.69,2514.29 1228.42,2498.27 1228.78,2481.61C1228.78,2481.61 1229.72,2479.4 1229.72,2479.4C1229.72,2479.4 1231.9,2478.47 1231.9,2478.47L1234.07,2479.39C1234.45,2480.26 1235.03,2481.57 1235.03,2481.59C1235.54,2498.84 1248.54,2515.03 1265.58,2518.64C1282.38,2522.2 1301.09,2513.23 1308.12,2496.57C1310.12,2491.85 1311.05,2486.7 1310.99,2481.58L1311.09,2480.56C1311.72,2478.21 1312.38,2477.8 1312.38,2477.8C1315.19,2475 1314.31,2475.05 1318.43,2475.78C1320.1,2476.07 1321.48,2477.15 1322.52,2478.63C1322.52,2478.63 1323.27,2480.82 1323.36,2482.78C1324.38,2501.62 1341.19,2518.82 1362.36,2517.39C1380.29,2516.19 1396.02,2500.57 1396.33,2481.58L1396.42,2480.53C1396.6,2479.89 1396.61,2479.32 1397.76,2477.69C1397.76,2477.69 1398.5,2476.94 1398.5,2476.94L1399.37,2476.34C1400.02,2476.04 1400.49,2475.51 1402.9,2475.53Z" style="fill:white;fill-rule:nonzero;"/>
                </g>
            </g>
        </g>
    </g>
</svg>
